<svg width="24" height="24" viewBox="0 0 24 24" fill="none" xmlns="http://www.w3.org/2000/svg">
<g id="history_24px">
<path id="icon/action/history_24px" fill-rule="evenodd" clip-rule="evenodd" d="M4.14407 12.0018C4.14407 6.95178 8.31407 2.86178 13.4041 3.00178C18.0941 3.13178 22.0141 7.05178 22.1441 11.7418C22.2841 16.8318 18.1941 21.0018 13.1441 21.0018C11.0541 21.0018 9.14407 20.2918 7.62407 19.0918C7.15407 18.7318 7.12407 18.0218 7.54407 17.6018C7.90407 17.2418 8.46407 17.2118 8.86407 17.5218C10.0441 18.4518 11.5341 19.0018 13.1441 19.0018C17.0441 19.0018 20.1941 15.8118 20.1441 11.9018C20.0941 8.18178 16.9641 5.05178 13.2441 5.00178C9.32407 4.95178 6.14407 8.10178 6.14407 12.0018H7.93407C8.38407 12.0018 8.60407 12.5418 8.29407 12.8518L5.50407 15.6518C5.30407 15.8518 4.99407 15.8518 4.79407 15.6518L2.00407 12.8518C1.68407 12.5418 1.90407 12.0018 2.35407 12.0018H4.14407ZM12.1441 8.75178C12.1441 8.34178 12.4841 8.00178 12.8941 8.00178C13.3041 8.00178 13.6441 8.34178 13.6441 8.74178V12.1418L16.5241 13.8518C16.8741 14.0618 16.9941 14.5218 16.7841 14.8818C16.5741 15.2318 16.1141 15.3518 15.7541 15.1418L12.6341 13.2918C12.3341 13.1118 12.1441 12.7818 12.1441 12.4318V8.75178Z" fill="#BDBDBD"/>
</g>
</svg>
