<svg width="132" height="132" viewBox="0 0 132 132" fill="none" xmlns="http://www.w3.org/2000/svg">
<path d="M107.219 115.309C104.517 116.941 101.422 117.806 98.2679 117.806H75.6307V119.055C75.6307 120.666 74.3222 121.975 72.711 121.975H58.8159C57.2047 121.975 55.8962 120.666 55.8962 119.055V116.417H52.2817C51.5145 116.417 50.8922 115.795 50.8922 115.027C50.8922 114.26 51.5145 113.638 52.2817 113.638H55.8962V111C55.8962 109.388 57.2047 108.08 58.8159 108.08H72.711C74.3222 108.08 75.6307 109.388 75.6307 111V112.248H98.2679C100.408 112.248 102.509 111.664 104.342 110.556L122.968 99.2952C128.705 89.5174 132 78.137 132 66.0021C132 29.6061 102.394 0 65.9979 0C29.6061 0 0 29.6061 0 65.9979C0 66.0277 0 66.0533 0 66.0831C0.0468856 102.437 29.636 132 65.9979 132C84.9354 132 102.036 123.978 114.081 111.161L107.219 115.309ZM4.50102 66.0831C4.50102 32.172 32.0911 4.582 66.0021 4.582V12.1945C36.2895 12.1945 12.1135 36.3704 12.1135 66.0831H4.50102V66.0831ZM16.6146 66.0831C16.6614 38.8895 38.7957 16.7765 66.0021 16.7765V24.389C42.9941 24.389 24.274 43.0836 24.2271 66.0831H16.6146V66.0831ZM28.7238 66.2493C28.7238 66.1939 28.7281 66.1385 28.7281 66.0831C28.8176 45.6069 45.5003 28.9753 66.0021 28.971C86.5551 28.971 103.276 45.6921 103.276 66.2493C103.276 86.8023 86.5551 103.523 66.0021 103.523C45.4449 103.523 28.7238 86.8023 28.7238 66.2493Z" fill="#007AFF"/>
<path d="M88.2174 88.4603H56.7571V43.5226H65.7506V79.4668H88.2174V88.4603Z" fill="#007AFF"/>
</svg>
