<svg width="16" height="16" viewBox="0 0 16 16" fill="none" xmlns="http://www.w3.org/2000/svg">
<path fill-rule="evenodd" clip-rule="evenodd" d="M15.7072 14.371L11.3264 9.98855C12.1116 8.91753 12.5323 7.62269 12.5264 6.29466C12.5114 2.82804 9.70758 0.0200861 6.24098 6.36806e-05C4.58202 -0.00744216 2.98896 0.648846 1.81669 1.82272C0.644426 2.9966 -0.00967467 4.59056 0.000108177 6.24951C0.0150914 9.71645 2.81922 12.5247 6.28613 12.5447C7.61958 12.5505 8.91914 12.1249 9.99088 11.3315L9.99545 11.328L14.3722 15.7071C14.6089 15.9554 14.9615 16.0559 15.2934 15.9696C15.6254 15.8834 15.8845 15.6241 15.9705 15.292C16.0564 14.96 15.9556 14.6075 15.7072 14.371ZM6.28154 11.2898C3.50816 11.2738 1.2649 9.0275 1.25272 6.2541C1.24524 4.92711 1.76856 3.6522 2.7062 2.71317C3.64384 1.77414 4.91797 1.24892 6.24496 1.25443C9.01834 1.27038 11.2616 3.51671 11.2738 6.2901C11.2813 7.61709 10.7579 8.892 9.8203 9.83103C8.88267 10.7701 7.60853 11.2953 6.28154 11.2898Z" fill="white"/>
</svg>
