<svg width="22" height="22" viewBox="0 0 22 22" fill="none" xmlns="http://www.w3.org/2000/svg">
<path d="M6.41671 20.1666H3.66671C3.18048 20.1666 2.71416 19.9734 2.37034 19.6296C2.02653 19.2858 1.83337 18.8195 1.83337 18.3333V11.9166C1.83337 11.4304 2.02653 10.964 2.37034 10.6202C2.71416 10.2764 3.18048 10.0833 3.66671 10.0833H6.41671M12.8334 8.24992V4.58325C12.8334 3.85391 12.5436 3.15443 12.0279 2.63871C11.5122 2.12298 10.8127 1.83325 10.0834 1.83325L6.41671 10.0833V20.1666H16.7567C17.1988 20.1716 17.6279 20.0166 17.9648 19.7303C18.3017 19.4439 18.5237 19.0454 18.59 18.6083L19.855 10.3583C19.8949 10.0955 19.8772 9.82721 19.8031 9.57198C19.729 9.31676 19.6003 9.08069 19.4259 8.88014C19.2515 8.67959 19.0356 8.51936 18.7931 8.41053C18.5507 8.30171 18.2875 8.24691 18.0217 8.24992H12.8334Z" stroke="white" stroke-linecap="round" stroke-linejoin="round"/>
</svg>
