<svg width="22" height="22" viewBox="0 0 22 22" fill="none" xmlns="http://www.w3.org/2000/svg">
<path d="M20.6617 5.88508C20.5528 5.45004 20.331 5.05144 20.0188 4.72954C19.7065 4.40764 19.3149 4.17383 18.8833 4.05175C17.3067 3.66675 11 3.66675 11 3.66675C11 3.66675 4.69333 3.66675 3.11666 4.08841C2.68514 4.2105 2.29347 4.4443 1.98123 4.7662C1.66898 5.08811 1.44722 5.48671 1.33833 5.92175C1.04978 7.52184 0.908628 9.14503 0.916662 10.7709C0.906376 12.409 1.04753 14.0446 1.33833 15.6567C1.45837 16.0783 1.68511 16.4617 1.99663 16.77C2.30814 17.0783 2.69391 17.3011 3.11666 17.4167C4.69333 17.8384 11 17.8384 11 17.8384C11 17.8384 17.3067 17.8384 18.8833 17.4167C19.3149 17.2947 19.7065 17.0609 20.0188 16.739C20.331 16.4171 20.5528 16.0185 20.6617 15.5834C20.948 13.9954 21.0891 12.3846 21.0833 10.7709C21.0936 9.13279 20.9525 7.49722 20.6617 5.88508V5.88508Z" stroke="white" stroke-linecap="round" stroke-linejoin="round"/>
<path d="M8.9375 13.7684L14.2083 10.7709L8.9375 7.77344V13.7684Z" stroke="white" stroke-linecap="round" stroke-linejoin="round"/>
</svg>
