<svg width="33" height="32" viewBox="0 0 33 32" fill="none" xmlns="http://www.w3.org/2000/svg">
<circle cx="17" cy="16" r="14" fill="white"/>
<path d="M16.6667 0C7.83103 0 0.666748 7.16429 0.666748 16C0.666748 24.8357 7.83103 32 16.6667 32C25.5025 32 32.6667 24.8357 32.6667 16C32.6667 7.16429 25.5025 0 16.6667 0ZM24.356 12.0607C24.3667 12.2286 24.3667 12.4036 24.3667 12.575C24.3667 17.8179 20.3739 23.8571 13.0775 23.8571C10.8275 23.8571 8.74175 23.2036 6.98461 22.0786C7.30603 22.1143 7.61318 22.1286 7.94175 22.1286C9.79889 22.1286 11.506 21.5 12.8667 20.4357C11.1239 20.4 9.65961 19.2571 9.15961 17.6857C9.77032 17.775 10.3203 17.775 10.9489 17.6143C10.0515 17.432 9.24487 16.9446 8.66609 16.2349C8.08731 15.5253 7.77206 14.6372 7.77389 13.7214V13.6714C8.29889 13.9679 8.91675 14.15 9.56318 14.175C9.01976 13.8128 8.5741 13.3222 8.26572 12.7465C7.95734 12.1709 7.79576 11.528 7.79532 10.875C7.79532 10.1357 7.98818 9.46071 8.33461 8.875C9.33069 10.1012 10.5736 11.1041 11.9827 11.8184C13.3917 12.5328 14.9353 12.9427 16.5132 13.0214C15.9525 10.325 17.9667 8.14286 20.3882 8.14286C21.531 8.14286 22.5596 8.62143 23.2846 9.39286C24.181 9.225 25.0382 8.88929 25.8025 8.43929C25.506 9.35714 24.8846 10.1321 24.0596 10.6214C24.8596 10.5357 25.631 10.3143 26.3453 10.0036C25.806 10.7964 25.131 11.5 24.356 12.0607Z" fill="#55ACEE"/>
</svg>
