<svg width="33" height="32" viewBox="0 0 33 32" fill="none" xmlns="http://www.w3.org/2000/svg">
<circle cx="16" cy="16" r="14" fill="white"/>
<path fill-rule="evenodd" clip-rule="evenodd" d="M16.3335 0C7.49616 0 0.333496 7.164 0.333496 16C0.333496 24.836 7.49616 32 16.3335 32C25.1695 32 32.3335 24.836 32.3335 16C32.3335 7.164 25.1695 0 16.3335 0ZM16.5202 25.3573C11.3628 25.3573 7.18683 21.1707 7.18683 16C7.18683 10.8293 11.3628 6.64267 16.5202 6.64267C19.0402 6.64267 21.1468 7.572 22.7628 9.08133L20.1308 11.7187V11.7133C19.1508 10.7773 17.9082 10.2973 16.5202 10.2973C13.4402 10.2973 10.9375 12.9053 10.9375 15.9947C10.9375 19.0813 13.4402 21.6973 16.5202 21.6973C19.3148 21.6973 21.2162 20.0947 21.6082 17.8947H16.5202V14.2453H25.3002C25.4175 14.872 25.4802 15.5253 25.4802 16.2107C25.4802 21.5573 21.9108 25.3573 16.5202 25.3573Z" fill="#F24646"/>
</svg>
